<?xml version="1.0" encoding="UTF-8"?>
<svg id="Layer_1" xmlns="http://www.w3.org/2000/svg" version="1.1" viewBox="0 0 1619.454 589.562">
  <!-- Generator: Adobe Illustrator 29.2.1, SVG Export Plug-In . SVG Version: 2.1.0 Build 116)  -->
  <defs>
    <style>
      .st0 {
        fill: #58595b;
      }

      .st1 {
        fill: #414042;
      }

      .st2 {
        fill: #6d6e71;
      }

      .st3 {
        fill: #231f20;
      }

      .st4 {
        fill: #0d0d0d;
      }
    </style>
  </defs>
  <rect class="st3" x="118.996" y="127.509" width="100.073" height="100.073" transform="translate(-25.052 27.794) rotate(-8.754)"/>
  <rect class="st3" x="165.96" y="388.187" width="100.073" height="100.073" transform="translate(-64.179 37.979) rotate(-8.754)"/>
  <rect class="st1" x="243.775" y="128.409" width="100.073" height="100.073" transform="translate(-23.736 46.795) rotate(-8.754)"/>
  <rect class="st1" x="276.632" y="321.5" width="100.073" height="100.073" transform="translate(-52.74 54.045) rotate(-8.754)"/>
  <rect class="st0" x="365.893" y="131.166" width="100.073" height="100.073" transform="translate(-22.733 65.413) rotate(-8.754)"/>
  <rect class="st2" x="489.438" y="134.616" width="100.073" height="100.073" transform="translate(-21.819 84.256) rotate(-8.754)"/>
  <rect class="st0" x="384.624" y="252.804" width="100.073" height="100.073" transform="translate(-41.027 69.681) rotate(-8.754)"/>
  <g>
    <path class="st4" d="M586.51,314.81l41.58-3.911c1.714,4.94,4.117,8.475,7.204,10.601,3.088,2.128,7.205,3.19,12.351,3.19,5.625,0,9.983-1.197,13.071-3.597,2.401-1.78,3.602-4.006,3.602-6.679,0-3.014-1.579-5.344-4.734-6.989-2.264-1.164-8.269-2.602-18.011-4.315-14.547-2.535-24.649-4.883-30.31-7.042-5.661-2.158-10.43-5.809-14.306-10.95-3.877-5.14-5.815-11.001-5.815-17.581,0-7.198,2.092-13.401,6.278-18.611,4.185-5.209,9.948-9.099,17.291-11.668,7.341-2.57,17.188-3.856,29.538-3.856,13.036,0,22.659.995,28.869,2.984,6.209,1.991,11.389,5.078,15.541,9.263,4.151,4.186,7.599,9.847,10.344,16.981l-39.727,3.911c-1.029-3.499-2.745-6.072-5.146-7.719-3.293-2.195-7.273-3.293-11.938-3.293-4.734,0-8.182.839-10.344,2.518-2.161,1.679-3.242,3.717-3.242,6.114,0,2.673,1.372,4.692,4.117,6.062,2.743,1.37,8.713,2.604,17.908,3.7,13.928,1.576,24.289,3.77,31.082,6.581,6.792,2.811,11.99,6.819,15.592,12.028,3.602,5.21,5.403,10.934,5.403,17.17,0,6.307-1.904,12.442-5.712,18.405-3.808,5.963-9.813,10.71-18.011,14.239-8.2,3.528-19.367,5.294-33.5,5.294-19.966,0-34.187-2.846-42.66-8.542-8.475-5.694-13.912-13.791-16.312-24.289Z"/>
    <path class="st4" d="M713.814,386.75v-150.88h39.212v16.158c5.419-6.792,10.395-11.389,14.923-13.791,6.106-3.225,12.865-4.837,20.275-4.837,14.615,0,25.918,5.593,33.912,16.775,7.993,11.185,11.99,25.01,11.99,41.477,0,18.184-4.357,32.06-13.07,41.631-8.714,9.572-19.727,14.357-33.037,14.357-6.45,0-12.334-1.098-17.651-3.293-5.318-2.195-10.07-5.455-14.254-9.777v52.18h-42.3ZM755.806,290.83c0,8.646,1.817,15.062,5.455,19.246,3.636,4.186,8.233,6.278,13.791,6.278,4.871,0,8.954-2.007,12.248-6.021,3.293-4.015,4.94-10.823,4.94-20.43,0-8.852-1.716-15.352-5.146-19.504-3.432-4.15-7.616-6.227-12.556-6.227-5.352,0-9.812,2.094-13.379,6.278-3.568,4.186-5.352,10.979-5.352,20.378Z"/>
    <path class="st4" d="M966.475,300.916h-83.982c.755,6.726,2.573,11.733,5.455,15.026,4.048,4.734,9.33,7.102,15.85,7.102,4.117,0,8.028-1.029,11.733-3.087,2.264-1.303,4.698-3.603,7.307-6.896l41.271,3.809c-6.313,10.979-13.93,18.852-22.849,23.62-8.92,4.768-21.716,7.152-38.389,7.152-14.479,0-25.868-2.042-34.17-6.123-8.303-4.082-15.181-10.565-20.635-19.452-5.455-8.885-8.183-19.331-8.183-31.339,0-17.085,5.471-30.91,16.416-41.477,10.943-10.565,26.055-15.85,45.336-15.85,15.644,0,27.994,2.367,37.051,7.102,9.058,4.734,15.953,11.596,20.688,20.584,4.734,8.989,7.101,20.687,7.101,35.095v4.734ZM923.866,280.846c-.823-8.095-3.002-13.894-6.535-17.393-3.535-3.5-8.183-5.249-13.945-5.249-6.656,0-11.975,2.642-15.953,7.925-2.539,3.293-4.152,8.199-4.837,14.717h41.271Z"/>
    <path class="st4" d="M961.837,235.871h49.711l17.342,30.464,20.224-30.464h46.211l-37.286,52.077,39.962,57.224h-48.887l-20.224-35.198-23.723,35.198h-45.388l39.697-57.224-37.64-52.077Z"/>
    <path class="st2" d="M1153.262,194.291v41.579h23.055v30.67h-23.055v38.724c0,4.657.445,7.738,1.338,9.243,1.372,2.329,3.773,3.493,7.205,3.493,3.087,0,7.41-.89,12.968-2.671l3.087,28.915c-10.36,2.265-20.035,3.396-29.022,3.396-10.431,0-18.114-1.336-23.055-4.009-4.939-2.673-8.594-6.731-10.961-12.18s-3.551-14.271-3.551-26.468v-38.444h-15.438v-30.67h15.438v-20.069l41.991-21.51Z"/>
    <path class="st2" d="M1302.386,345.171h-39.109v-17.702c-5.833,7.273-11.717,12.453-17.65,15.541-5.936,3.088-13.226,4.631-21.871,4.631-11.526,0-20.567-3.447-27.119-10.343-6.553-6.896-9.829-17.513-9.829-31.854v-69.574h42.095v60.105c0,6.861,1.269,11.732,3.808,14.614,2.538,2.882,6.106,4.322,10.704,4.322,5.008,0,9.108-1.92,12.299-5.763,3.19-3.842,4.785-10.738,4.785-20.688v-52.592h41.889v109.301Z"/>
    <path class="st2" d="M1319.155,235.871h39.212v17.908c3.772-7.753,7.668-13.087,11.682-16.004,4.014-2.916,8.97-4.374,14.872-4.374,6.175,0,12.932,1.922,20.274,5.764l-12.968,29.847c-4.939-2.059-8.851-3.088-11.732-3.088-5.49,0-9.744,2.264-12.763,6.793-4.322,6.381-6.483,18.319-6.483,35.815v36.64h-42.094v-109.301Z"/>
    <path class="st2" d="M1527.973,300.916h-83.982c.755,6.726,2.573,11.733,5.455,15.026,4.048,4.734,9.33,7.102,15.85,7.102,4.117,0,8.028-1.029,11.733-3.087,2.264-1.303,4.698-3.603,7.307-6.896l41.271,3.809c-6.313,10.979-13.93,18.852-22.849,23.62-8.92,4.768-21.716,7.152-38.389,7.152-14.479,0-25.868-2.042-34.17-6.123-8.303-4.082-15.181-10.565-20.635-19.452-5.455-8.885-8.183-19.331-8.183-31.339,0-17.085,5.471-30.91,16.416-41.477,10.943-10.565,26.055-15.85,45.336-15.85,15.644,0,27.994,2.367,37.051,7.102,9.058,4.734,15.953,11.596,20.688,20.584,4.734,8.989,7.101,20.687,7.101,35.095v4.734ZM1485.364,280.846c-.823-8.095-3.002-13.894-6.535-17.393-3.535-3.5-8.183-5.249-13.945-5.249-6.656,0-11.975,2.642-15.953,7.925-2.539,3.293-4.152,8.199-4.837,14.717h41.271Z"/>
  </g>
</svg>