<?xml version="1.0" encoding="UTF-8"?>
<svg id="Layer_1" xmlns="http://www.w3.org/2000/svg" version="1.1" viewBox="0 0 1626.537 506.157">
  <!-- Generator: Adobe Illustrator 29.2.1, SVG Export Plug-In . SVG Version: 2.1.0 Build 116)  -->
  <defs>
    <style>
      .st0 {
        fill: #58595b;
      }

      .st1 {
        fill: #414042;
      }

      .st2 {
        fill: #6d6e71;
      }

      .st3 {
        fill: #0d0d0d;
      }
    </style>
  </defs>
  <rect class="st2" x="439.049" y="157.945" width="89.047" height="89.047" transform="translate(-25.181 75.955) rotate(-8.754)"/>
  <rect class="st0" x="330.031" y="116.172" width="89.047" height="89.047" transform="translate(-20.093 58.877) rotate(-8.754)"/>
  <rect class="st0" x="347.649" y="230.581" width="89.047" height="89.047" transform="translate(-37.301 62.891) rotate(-8.754)"/>
  <rect class="st1" x="226.588" y="109.574" width="89.047" height="89.047" transform="translate(-20.294 43.057) rotate(-8.754)"/>
  <rect class="st1" x="250.983" y="267.993" width="89.047" height="89.047" transform="translate(-44.121 48.615) rotate(-8.754)"/>
  <rect class="st3" x="121.791" y="94.176" width="89.047" height="89.047" transform="translate(-19.172 26.928) rotate(-8.754)"/>
  <rect class="st3" x="155.672" y="314.205" width="89.047" height="89.047" transform="translate(-52.264 34.647) rotate(-8.754)"/>
  <g>
    <path class="st3" d="M515.311,326.778l43.083-4.053c1.776,5.119,4.266,8.781,7.465,10.984,3.2,2.205,7.465,3.306,12.797,3.306,5.828,0,10.344-1.241,13.543-3.727,2.488-1.845,3.732-4.151,3.732-6.92,0-3.123-1.636-5.537-4.906-7.242-2.346-1.206-8.568-2.696-18.662-4.471-15.073-2.627-25.541-5.059-31.406-7.297-5.865-2.236-10.807-6.019-14.823-11.346-4.018-5.325-6.025-11.399-6.025-18.217,0-7.458,2.168-13.886,6.505-19.284,4.336-5.397,10.308-9.428,17.916-12.09,7.607-2.663,17.809-3.996,30.606-3.996,13.507,0,23.478,1.031,29.913,3.092,6.433,2.063,11.8,5.262,16.102,9.598,4.301,4.337,7.873,10.203,10.718,17.595l-41.163,4.053c-1.067-3.626-2.844-6.292-5.332-7.998-3.413-2.275-7.536-3.412-12.37-3.412-4.906,0-8.478.869-10.718,2.609-2.239,1.739-3.359,3.851-3.359,6.335,0,2.769,1.421,4.862,4.266,6.282,2.842,1.42,9.028,2.698,18.555,3.834,14.432,1.633,25.167,3.906,32.206,6.819,7.038,2.912,12.424,7.066,16.156,12.463,3.732,5.398,5.599,11.329,5.599,17.791,0,6.535-1.973,12.892-5.918,19.071-3.946,6.178-10.168,11.097-18.662,14.754-8.496,3.656-20.067,5.485-34.712,5.485-20.688,0-35.423-2.949-44.202-8.851-8.781-5.9-14.415-14.29-16.902-25.167Z"/>
    <path class="st3" d="M647.219,401.32v-156.335h40.63v16.742c5.615-7.038,10.771-11.8,15.463-14.29,6.327-3.341,13.33-5.012,21.008-5.012,15.143,0,26.855,5.795,35.138,17.382,8.282,11.589,12.423,25.914,12.423,42.976,0,18.841-4.515,33.219-13.542,43.136-9.029,9.918-20.44,14.876-34.232,14.876-6.683,0-12.78-1.137-18.289-3.412-5.511-2.275-10.434-5.652-14.77-10.131v54.066h-43.83ZM690.728,301.931c0,8.958,1.883,15.606,5.652,19.942,3.767,4.337,8.531,6.505,14.29,6.505,5.047,0,9.278-2.079,12.69-6.238,3.413-4.16,5.119-11.215,5.119-21.168,0-9.172-1.778-15.907-5.332-20.209-3.556-4.3-7.891-6.452-13.01-6.452-5.545,0-10.167,2.169-13.863,6.505-3.697,4.337-5.545,11.375-5.545,21.115Z"/>
    <path class="st3" d="M909.013,312.381h-87.019c.782,6.969,2.666,12.158,5.652,15.57,4.194,4.906,9.667,7.358,16.423,7.358,4.266,0,8.319-1.067,12.158-3.199,2.346-1.35,4.868-3.733,7.571-7.146l42.764,3.946c-6.542,11.375-14.433,19.533-23.675,24.474-9.242,4.94-22.501,7.411-39.777,7.411-15.002,0-26.803-2.116-35.405-6.344-8.603-4.23-15.729-10.947-21.381-20.155-5.652-9.206-8.478-20.03-8.478-32.472,0-17.703,5.668-32.028,17.01-42.976,11.339-10.947,26.997-16.423,46.975-16.423,16.209,0,29.006,2.453,38.39,7.358,9.385,4.906,16.53,12.015,21.435,21.328,4.906,9.314,7.357,21.434,7.357,36.364v4.906ZM864.864,291.586c-.853-8.387-3.11-14.396-6.771-18.021-3.663-3.627-8.478-5.439-14.449-5.439-6.897,0-12.408,2.737-16.53,8.211-2.631,3.412-4.302,8.496-5.012,15.249h42.763Z"/>
    <path class="st3" d="M904.208,244.985h51.508l17.969,31.565,20.955-31.565h47.882l-38.634,53.96,41.407,59.292h-50.654l-20.955-36.471-24.58,36.471h-47.029l41.132-59.292-39-53.96Z"/>
    <path class="st2" d="M1102.553,201.903v43.082h23.888v31.779h-23.888v40.124c0,4.826.461,8.018,1.386,9.577,1.422,2.413,3.91,3.619,7.466,3.619,3.199,0,7.678-.922,13.437-2.767l3.199,29.96c-10.735,2.347-20.759,3.519-30.072,3.519-10.808,0-18.769-1.384-23.888-4.154-5.118-2.769-8.904-6.975-11.357-12.62-2.453-5.645-3.679-14.786-3.679-27.425v-39.834h-15.996v-31.779h15.996v-20.795l43.509-22.287Z"/>
    <path class="st2" d="M1257.069,358.237h-40.523v-18.342c-6.044,7.536-12.14,12.903-18.289,16.103-6.15,3.2-13.704,4.798-22.662,4.798-11.943,0-21.311-3.572-28.1-10.717-6.79-7.145-10.184-18.146-10.184-33.005v-72.09h43.617v62.278c0,7.109,1.314,12.157,3.945,15.143,2.63,2.986,6.327,4.479,11.091,4.479,5.189,0,9.438-1.989,12.743-5.971,3.306-3.981,4.958-11.127,4.958-21.435v-54.493h43.403v113.252Z"/>
    <path class="st2" d="M1274.444,244.985h40.63v18.556c3.909-8.033,7.945-13.56,12.104-16.582,4.159-3.021,9.294-4.532,15.41-4.532,6.398,0,13.399,1.991,21.007,5.972l-13.437,30.926c-5.118-2.133-9.171-3.2-12.157-3.2-5.689,0-10.096,2.346-13.224,7.039-4.479,6.612-6.718,18.982-6.718,37.11v37.964h-43.616v-113.252Z"/>
    <path class="st2" d="M1490.811,312.381h-87.019c.782,6.969,2.666,12.158,5.652,15.57,4.194,4.906,9.667,7.358,16.423,7.358,4.266,0,8.319-1.067,12.158-3.199,2.346-1.35,4.868-3.733,7.571-7.146l42.764,3.946c-6.542,11.375-14.433,19.533-23.675,24.474-9.242,4.94-22.501,7.411-39.777,7.411-15.002,0-26.803-2.116-35.405-6.344-8.603-4.23-15.729-10.947-21.381-20.155-5.652-9.206-8.478-20.03-8.478-32.472,0-17.703,5.668-32.028,17.01-42.976,11.339-10.947,26.997-16.423,46.975-16.423,16.209,0,29.006,2.453,38.39,7.358,9.385,4.906,16.53,12.015,21.435,21.328,4.906,9.314,7.357,21.434,7.357,36.364v4.906ZM1446.662,291.586c-.853-8.387-3.11-14.396-6.771-18.021-3.663-3.627-8.478-5.439-14.449-5.439-6.897,0-12.408,2.737-16.53,8.211-2.631,3.412-4.302,8.496-5.012,15.249h42.763Z"/>
  </g>
</svg>