<?xml version="1.0" encoding="UTF-8"?>
<svg id="Layer_1" xmlns="http://www.w3.org/2000/svg" version="1.1" viewBox="0 0 1619.454 589.562">
  <!-- Generator: Adobe Illustrator 29.2.1, SVG Export Plug-In . SVG Version: 2.1.0 Build 116)  -->
  <defs>
    <style>
      .st0 {
        fill: #6d6e71;
      }

      .st1 {
        fill: #bcbec0;
      }

      .st2 {
        fill: #fff;
      }

      .st3 {
        fill: #a7a9ac;
      }
    </style>
  </defs>
  <rect class="st2" x="165.77" y="129.216" width="94.791" height="94.791" transform="translate(-24.396 34.5) rotate(-8.754)"/>
  <rect class="st2" x="210.255" y="376.133" width="94.791" height="94.791" transform="translate(-61.457 44.147) rotate(-8.754)"/>
  <rect class="st1" x="283.962" y="130.068" width="94.791" height="94.791" transform="translate(-23.149 52.498) rotate(-8.754)"/>
  <rect class="st1" x="315.084" y="312.966" width="94.791" height="94.791" transform="translate(-50.622 59.365) rotate(-8.754)"/>
  <rect class="st3" x="399.633" y="132.679" width="94.791" height="94.791" transform="translate(-22.199 70.133) rotate(-8.754)"/>
  <rect class="st0" x="516.657" y="135.947" width="94.791" height="94.791" transform="translate(-21.333 87.982) rotate(-8.754)"/>
  <rect class="st3" x="417.375" y="247.897" width="94.791" height="94.791" transform="translate(-39.528 74.176) rotate(-8.754)"/>
  <g>
    <path class="st2" d="M608.604,306.629l39.385-3.705c1.623,4.68,3.899,8.027,6.824,10.041,2.925,2.016,6.824,3.022,11.699,3.022,5.328,0,9.456-1.134,12.381-3.407,2.274-1.686,3.412-3.794,3.412-6.326,0-2.855-1.496-5.062-4.484-6.62-2.145-1.103-7.833-2.464-17.06-4.088-13.779-2.401-23.348-4.625-28.71-6.67-5.362-2.044-9.88-5.502-13.551-10.372-3.673-4.868-5.508-10.42-5.508-16.653,0-6.818,1.982-12.694,5.946-17.629,3.964-4.934,9.423-8.618,16.378-11.052,6.954-2.435,16.281-3.653,27.979-3.653,12.348,0,21.463.943,27.345,2.827,5.881,1.886,10.787,4.81,14.72,8.774,3.932,3.965,7.198,9.327,9.798,16.085l-37.63,3.705c-.975-3.314-2.6-5.752-4.874-7.311-3.12-2.079-6.889-3.119-11.308-3.119-4.484,0-7.75.795-9.798,2.385-2.047,1.59-3.071,3.521-3.071,5.791,0,2.532,1.299,4.445,3.899,5.742,2.598,1.298,8.253,2.466,16.962,3.505,13.193,1.493,23.007,3.571,29.441,6.234,6.434,2.662,11.357,6.459,14.769,11.393,3.412,4.935,5.118,10.356,5.118,16.264,0,5.974-1.804,11.786-5.41,17.434-3.607,5.648-9.295,10.145-17.06,13.488-7.767,3.342-18.344,5.014-31.732,5.014-18.912,0-32.382-2.695-40.408-8.091-8.027-5.394-13.177-13.063-15.451-23.007Z"/>
    <path class="st2" d="M729.189,374.772v-142.915h37.142v15.305c5.133-6.433,9.846-10.787,14.136-13.063,5.784-3.054,12.186-4.582,19.205-4.582,13.843,0,24.55,5.298,32.122,15.89,7.571,10.594,11.357,23.69,11.357,39.287,0,17.224-4.127,30.367-12.38,39.433-8.254,9.067-18.686,13.6-31.293,13.6-6.11,0-11.683-1.04-16.719-3.119-5.038-2.079-9.539-5.167-13.502-9.261v49.425h-40.067ZM768.964,283.915c0,8.189,1.721,14.266,5.167,18.23,3.444,3.965,7.799,5.947,13.063,5.947,4.614,0,8.481-1.901,11.601-5.703,3.12-3.803,4.679-10.252,4.679-19.351,0-8.384-1.625-14.541-4.874-18.474-3.25-3.931-7.214-5.898-11.893-5.898-5.069,0-9.295,1.983-12.673,5.947-3.38,3.965-5.069,10.399-5.069,19.302Z"/>
    <path class="st2" d="M968.512,293.468h-79.549c.715,6.371,2.437,11.114,5.167,14.233,3.834,4.484,8.838,6.727,15.013,6.727,3.9,0,7.605-.975,11.114-2.924,2.144-1.234,4.45-3.412,6.921-6.532l39.093,3.608c-5.98,10.399-13.194,17.856-21.643,22.373-8.449,4.516-20.569,6.775-36.362,6.775-13.714,0-24.503-1.934-32.366-5.8-7.864-3.867-14.379-10.008-19.546-18.425-5.167-8.416-7.751-18.311-7.751-29.685,0-16.183,5.182-29.278,15.549-39.287,10.366-10.008,24.679-15.013,42.943-15.013,14.818,0,26.516,2.242,35.095,6.727,8.579,4.484,15.111,10.984,19.595,19.497,4.484,8.515,6.726,19.595,6.726,33.242v4.484ZM928.152,274.458c-.78-7.667-2.843-13.16-6.19-16.474-3.349-3.315-7.751-4.972-13.209-4.972-6.305,0-11.342,2.502-15.111,7.506-2.405,3.119-3.933,7.766-4.582,13.94h39.092Z"/>
    <path class="st2" d="M964.119,231.857h47.087l16.426,28.856,19.156-28.856h43.772l-35.318,49.328,37.852,54.203h-46.306l-19.156-33.34-22.47,33.34h-42.992l37.602-54.203-35.653-49.328Z"/>
    <path class="st3" d="M1145.439,192.473v39.384h21.838v29.051h-21.838v36.679c0,4.411.422,7.33,1.267,8.755,1.3,2.206,3.574,3.309,6.825,3.309,2.924,0,7.019-.843,12.283-2.53l2.924,27.389c-9.813,2.145-18.978,3.217-27.49,3.217-9.88,0-17.158-1.265-21.838-3.797-4.679-2.532-8.14-6.376-10.382-11.537-2.242-5.161-3.363-13.517-3.363-25.071v-36.415h-14.623v-29.051h14.623v-19.01l39.775-20.374Z"/>
    <path class="st3" d="M1286.691,335.388h-37.045v-16.768c-5.525,6.889-11.098,11.796-16.719,14.721-5.622,2.925-12.527,4.386-20.717,4.386-10.918,0-19.482-3.265-25.688-9.797-6.207-6.532-9.31-16.588-9.31-30.172v-65.902h39.873v56.933c0,6.499,1.202,11.113,3.607,13.843,2.404,2.73,5.784,4.094,10.139,4.094,4.743,0,8.628-1.819,11.65-5.458,3.022-3.639,4.533-10.171,4.533-19.595v-49.816h39.677v103.531Z"/>
    <path class="st3" d="M1302.575,231.857h37.142v16.963c3.573-7.344,7.263-12.396,11.065-15.159,3.802-2.762,8.496-4.143,14.087-4.143,5.849,0,12.249,1.82,19.204,5.459l-12.283,28.271c-4.679-1.95-8.383-2.925-11.113-2.925-5.2,0-9.23,2.144-12.089,6.434-4.094,6.044-6.141,17.352-6.141,33.925v34.706h-39.872v-103.531Z"/>
    <path class="st3" d="M1500.369,293.468h-79.549c.715,6.371,2.437,11.114,5.167,14.233,3.834,4.484,8.838,6.727,15.013,6.727,3.9,0,7.605-.975,11.114-2.924,2.144-1.234,4.45-3.412,6.921-6.532l39.093,3.608c-5.98,10.399-13.194,17.856-21.643,22.373-8.449,4.516-20.569,6.775-36.362,6.775-13.714,0-24.503-1.934-32.366-5.8-7.864-3.867-14.379-10.008-19.546-18.425-5.167-8.416-7.751-18.311-7.751-29.685,0-16.183,5.182-29.278,15.549-39.287,10.366-10.008,24.679-15.013,42.943-15.013,14.818,0,26.516,2.242,35.095,6.727,8.579,4.484,15.111,10.984,19.595,19.497,4.484,8.515,6.726,19.595,6.726,33.242v4.484ZM1460.01,274.458c-.78-7.667-2.843-13.16-6.19-16.474-3.349-3.315-7.751-4.972-13.209-4.972-6.305,0-11.342,2.502-15.111,7.506-2.405,3.119-3.933,7.766-4.582,13.94h39.092Z"/>
  </g>
</svg>