<?xml version="1.0" encoding="UTF-8"?>
<svg id="Layer_1" xmlns="http://www.w3.org/2000/svg" version="1.1" viewBox="0 0 1626.537 506.157">
  <!-- Generator: Adobe Illustrator 29.2.1, SVG Export Plug-In . SVG Version: 2.1.0 Build 116)  -->
  <defs>
    <style>
      .st0 {
        fill: #6d6e71;
      }

      .st1 {
        fill: #bcbec0;
      }

      .st2 {
        fill: #fff;
      }

      .st3 {
        fill: #a7a9ac;
      }
    </style>
  </defs>
  <rect class="st0" x="446.842" y="158.104" width="85.362" height="85.362" transform="translate(-24.856 76.841) rotate(-8.754)"/>
  <rect class="st3" x="342.336" y="118.059" width="85.362" height="85.362" transform="translate(-19.978 60.47) rotate(-8.754)"/>
  <rect class="st3" x="359.224" y="227.733" width="85.362" height="85.362" transform="translate(-36.473 64.318) rotate(-8.754)"/>
  <rect class="st1" x="243.173" y="111.734" width="85.362" height="85.362" transform="translate(-20.171 45.304) rotate(-8.754)"/>
  <rect class="st1" x="266.559" y="263.598" width="85.362" height="85.362" transform="translate(-43.011 50.632) rotate(-8.754)"/>
  <rect class="st2" x="142.712" y="96.973" width="85.362" height="85.362" transform="translate(-19.095 29.843) rotate(-8.754)"/>
  <rect class="st2" x="175.192" y="307.897" width="85.362" height="85.362" transform="translate(-50.818 37.243) rotate(-8.754)"/>
  <g>
    <path class="st2" d="M519.949,319.95l41.3-3.885c1.702,4.907,4.089,8.418,7.156,10.529,3.067,2.114,7.156,3.169,12.268,3.169,5.587,0,9.916-1.189,12.983-3.573,2.385-1.768,3.578-3.979,3.578-6.634,0-2.993-1.568-5.308-4.703-6.942-2.249-1.156-8.213-2.584-17.89-4.286-14.45-2.518-24.484-4.85-30.106-6.995-5.623-2.144-10.36-5.77-14.21-10.877-3.851-5.105-5.776-10.927-5.776-17.463,0-7.15,2.078-13.311,6.236-18.486,4.156-5.174,9.881-9.037,17.174-11.59,7.292-2.553,17.072-3.831,29.34-3.831,12.948,0,22.506.988,28.675,2.964,6.167,1.978,11.312,5.044,15.436,9.2,4.123,4.157,7.548,9.78,10.274,16.867l-39.46,3.885c-1.022-3.476-2.727-6.031-5.111-7.667-3.271-2.181-7.225-3.271-11.858-3.271-4.703,0-8.127.833-10.274,2.501-2.147,1.667-3.22,3.692-3.22,6.073,0,2.655,1.362,4.661,4.089,6.022,2.725,1.361,8.654,2.586,17.787,3.675,13.835,1.566,24.126,3.744,30.873,6.537,6.747,2.792,11.91,6.773,15.487,11.947,3.578,5.175,5.367,10.86,5.367,17.055,0,6.264-1.891,12.359-5.674,18.282-3.783,5.923-9.747,10.638-17.89,14.144-8.145,3.505-19.237,5.258-33.275,5.258-19.832,0-33.957-2.827-42.373-8.485-8.418-5.656-13.818-13.698-16.203-24.126Z"/>
    <path class="st2" d="M646.398,391.407v-149.866h38.949v16.05c5.383-6.746,10.325-11.312,14.823-13.698,6.065-3.203,12.779-4.804,20.139-4.804,14.517,0,25.744,5.555,33.684,16.663,7.939,11.109,11.909,24.842,11.909,41.198,0,18.061-4.328,31.844-12.982,41.351-8.656,9.508-19.594,14.261-32.815,14.261-6.407,0-12.252-1.09-17.532-3.271-5.283-2.181-10.003-5.418-14.159-9.712v51.829h-42.016ZM688.108,296.131c0,8.587,1.805,14.96,5.418,19.117,3.611,4.157,8.178,6.236,13.698,6.236,4.838,0,8.894-1.993,12.165-5.98,3.271-3.988,4.907-10.75,4.907-20.292,0-8.792-1.704-15.248-5.111-19.373-3.409-4.122-7.565-6.185-12.472-6.185-5.316,0-9.747,2.08-13.289,6.236-3.544,4.157-5.316,10.905-5.316,20.241Z"/>
    <path class="st2" d="M897.36,306.149h-83.418c.75,6.68,2.556,11.655,5.418,14.925,4.021,4.703,9.267,7.054,15.743,7.054,4.09,0,7.974-1.022,11.655-3.066,2.248-1.294,4.667-3.578,7.258-6.85l40.994,3.783c-6.271,10.905-13.836,18.725-22.695,23.461-8.86,4.736-21.57,7.104-38.131,7.104-14.381,0-25.694-2.028-33.94-6.082-8.247-4.055-15.079-10.494-20.496-19.321-5.418-8.825-8.128-19.201-8.128-31.128,0-16.97,5.434-30.702,16.306-41.198,10.87-10.494,25.88-15.743,45.031-15.743,15.538,0,27.806,2.351,36.802,7.054,8.997,4.703,15.846,11.518,20.548,20.446,4.703,8.929,7.053,20.547,7.053,34.859v4.703ZM855.038,286.215c-.818-8.04-2.982-13.8-6.491-17.276-3.511-3.476-8.128-5.214-13.852-5.214-6.612,0-11.894,2.624-15.846,7.872-2.522,3.271-4.124,8.144-4.804,14.618h40.993Z"/>
    <path class="st2" d="M892.753,241.542h49.377l17.225,30.259,20.088-30.259h45.9l-37.035,51.727,39.693,56.839h-48.558l-20.088-34.962-23.563,34.962h-45.083l39.43-56.839-37.387-51.727Z"/>
    <path class="st3" d="M1082.891,200.242v41.3h22.9v30.464h-22.9v38.463c0,4.626.442,7.686,1.329,9.181,1.363,2.313,3.748,3.47,7.157,3.47,3.066,0,7.36-.884,12.881-2.653l3.066,28.721c-10.291,2.249-19.9,3.374-28.827,3.374-10.361,0-17.992-1.327-22.9-3.982-4.906-2.655-8.536-6.686-10.887-12.098s-3.527-14.175-3.527-26.29v-38.186h-15.334v-30.464h15.334v-19.934l41.709-21.365Z"/>
    <path class="st3" d="M1231.013,350.108h-38.846v-17.583c-5.794,7.225-11.638,12.369-17.532,15.437-5.896,3.067-13.137,4.6-21.724,4.6-11.449,0-20.429-3.424-26.937-10.273-6.509-6.849-9.763-17.395-9.763-31.639v-69.107h41.812v59.701c0,6.815,1.26,11.654,3.782,14.516,2.521,2.862,6.065,4.293,10.632,4.293,4.974,0,9.047-1.907,12.216-5.724,3.169-3.816,4.753-10.666,4.753-20.548v-52.238h41.607v108.566Z"/>
    <path class="st3" d="M1247.67,241.542h38.948v17.788c3.747-7.701,7.616-12.999,11.603-15.896,3.987-2.896,8.909-4.345,14.772-4.345,6.133,0,12.845,1.909,20.138,5.725l-12.881,29.646c-4.906-2.045-8.791-3.067-11.654-3.067-5.453,0-9.679,2.248-12.677,6.747-4.293,6.338-6.44,18.196-6.44,35.575v36.393h-41.811v-108.566Z"/>
    <path class="st3" d="M1455.084,306.149h-83.418c.75,6.68,2.556,11.655,5.418,14.925,4.021,4.703,9.267,7.054,15.743,7.054,4.09,0,7.974-1.022,11.655-3.066,2.248-1.294,4.667-3.578,7.258-6.85l40.994,3.783c-6.271,10.905-13.836,18.725-22.695,23.461-8.86,4.736-21.57,7.104-38.131,7.104-14.381,0-25.694-2.028-33.94-6.082-8.247-4.055-15.079-10.494-20.496-19.321-5.418-8.825-8.128-19.201-8.128-31.128,0-16.97,5.434-30.702,16.306-41.198,10.87-10.494,25.88-15.743,45.031-15.743,15.538,0,27.806,2.351,36.802,7.054,8.997,4.703,15.846,11.518,20.548,20.446,4.703,8.929,7.053,20.547,7.053,34.859v4.703ZM1412.762,286.215c-.818-8.04-2.982-13.8-6.491-17.276-3.511-3.476-8.128-5.214-13.852-5.214-6.612,0-11.894,2.624-15.846,7.872-2.522,3.271-4.124,8.144-4.804,14.618h40.993Z"/>
  </g>
</svg>